<svg xmlns="http://www.w3.org/2000/svg" width="20" height="21" fill="none">
  <g clip-path="url(#a)">
    <path fill="#003366" d="M11.676 14.18a2.39 2.39 0 0 1-1.723.733 2.39 2.39 0 0 1-1.723-.732l-3.453-3.542a2.515 2.515 0 0 1-.714-1.767c0-.668.253-1.296.714-1.768A2.39 2.39 0 0 1 6.5 6.372c.65 0 1.263.26 1.723.732l1.73 1.774 4.775-4.898a8.765 8.765 0 0 0-5.79-2.191C4.001 1.789 0 5.893 0 10.955c0 5.063 4.002 9.167 8.937 9.167 4.936 0 8.938-4.104 8.938-9.167 0-.947-.14-1.86-.4-2.72l-5.799 5.946Z"/>
    <path fill="#D9DFE7" d="M9.953 13.247a.8.8 0 0 1-.574-.244L5.926 9.46a.847.847 0 0 1 0-1.178.797.797 0 0 1 1.148 0l2.879 2.952 8.16-8.369a.797.797 0 0 1 1.149 0 .848.848 0 0 1 0 1.178l-8.735 8.959a.8.8 0 0 1-.574.244Z"/>
  </g>
  <defs>
    <clipPath id="a">
      <path fill="#fff" d="M0 .968h19.5v20H0z"/>
    </clipPath>
  </defs>
</svg>

