<svg width="85" height="61" viewBox="0 0 85 61" fill="none" xmlns="http://www.w3.org/2000/svg">
<path d="M72.6153 35.5V58C72.6153 58.8125 72.2842 59.5156 71.6219 60.1094C70.9597 60.7031 70.1754 61 69.2692 61H49.1923V43H35.8076V61H15.7307C14.8245 61 14.0402 60.7031 13.378 60.1094C12.7157 59.5156 12.3846 58.8125 12.3846 58V35.5C12.3846 35.4688 12.3933 35.4219 12.4107 35.3594C12.4281 35.2969 12.4368 35.25 12.4368 35.2188L42.5 13L72.563 35.2188C72.5979 35.2812 72.6153 35.375 72.6153 35.5ZM84.2746 32.2656L81.033 35.7344C80.7542 36.0156 80.3882 36.1875 79.9351 36.25H79.7782C79.3251 36.25 78.9591 36.1406 78.6802 35.9219L42.5 8.875L6.31966 35.9219C5.90139 36.1719 5.48312 36.2812 5.06485 36.25C4.61173 36.1875 4.24574 36.0156 3.9669 35.7344L0.725311 32.2656C0.446464 31.9531 0.324469 31.5859 0.359325 31.1641C0.394181 30.7422 0.585887 30.4062 0.934445 30.1562L38.5264 2.07812C39.6418 1.26562 40.9663 0.859375 42.5 0.859375C44.0336 0.859375 45.3581 1.26562 46.4735 2.07812L59.2307 11.6406V2.5C59.2307 2.0625 59.3876 1.70312 59.7013 1.42188C60.015 1.14062 60.4158 1 60.9038 1H70.9423C71.4302 1 71.8311 1.14062 72.1448 1.42188C72.4585 1.70312 72.6153 2.0625 72.6153 2.5V21.625L84.0655 30.1562C84.414 30.4062 84.6057 30.7422 84.6406 31.1641C84.6754 31.5859 84.5534 31.9531 84.2746 32.2656Z" fill="black"/>
</svg>
