<svg width="105" height="65" viewBox="0 0 105 65" fill="none" xmlns="http://www.w3.org/2000/svg">
<path d="M105 51.0492C105 51.8628 104.751 52.925 104.254 54.2358C103.757 55.5466 103.235 56.5787 102.688 57.3321C101.644 58.8388 98.6115 60.4359 93.5902 62.1234C88.9169 63.6602 84.2933 64.4286 79.7195 64.4286C78.3771 64.4286 77.0721 64.3759 75.8043 64.2704C74.5366 64.165 73.1072 63.9766 71.5163 63.7054C69.9254 63.4342 68.7447 63.2157 67.9741 63.05C67.2035 62.8843 65.8239 62.5754 63.8352 62.1234C61.8466 61.6714 60.6286 61.4002 60.1811 61.3098C55.309 60.2551 50.9588 59.0045 47.1307 57.5581C40.767 55.1775 34.1921 51.9306 27.4059 47.8173C20.6197 43.704 15.2628 39.7188 11.3352 35.8617C8.94886 33.5413 6.88565 30.9046 5.1456 27.9515C4.99645 27.6803 4.54901 26.942 3.80327 25.7367C3.05753 24.5313 2.54794 23.6951 2.2745 23.228C2.00107 22.7609 1.64063 22.0453 1.19318 21.081C0.745739 20.1167 0.435014 19.2503 0.261009 18.4819C0.0870029 17.7135 0 16.9225 0 16.1089C0 13.3365 1.26776 10.5341 3.80327 7.7015C6.58736 4.65798 9.2223 2.81981 11.7081 2.18699C12.951 1.85552 14.6538 1.53911 16.8164 1.23778C18.979 0.936436 20.7315 0.785767 22.0739 0.785767C22.7699 0.785767 23.2919 0.830967 23.6399 0.921369C24.5348 1.10217 25.8523 2.24726 27.5923 4.35664C28.1392 4.92918 28.8849 5.7428 29.8295 6.79749C30.7741 7.85217 31.6442 8.80893 32.4396 9.66774C33.2351 10.5266 34.0057 11.3326 34.7514 12.086C34.9006 12.2065 35.3356 12.5832 36.0565 13.216C36.7773 13.8488 37.3118 14.3837 37.6598 14.8206C38.0078 15.2576 38.1818 15.687 38.1818 16.1089C38.1818 16.7115 37.4734 17.4649 36.0565 18.3689C34.6396 19.2729 33.0984 20.1016 31.4329 20.855C29.7674 21.6083 28.2262 22.4069 26.8093 23.2506C25.3924 24.0944 24.684 24.7874 24.684 25.3299C24.684 25.6011 24.8082 25.9401 25.0568 26.3469C25.3054 26.7537 25.5167 27.0626 25.6907 27.2735C25.8647 27.4844 26.2127 27.846 26.7347 28.3583C27.2567 28.8706 27.5426 29.1569 27.5923 29.2171C31.3707 33.3455 35.696 36.8862 40.5682 39.8393C45.4403 42.7925 51.282 45.4141 58.093 47.7043C58.1925 47.7344 58.6648 47.9077 59.5099 48.2241C60.3551 48.5405 60.9517 48.7514 61.2997 48.8569C61.6477 48.9624 62.1573 49.0905 62.8285 49.2411C63.4996 49.3918 64.059 49.4671 64.5064 49.4671C65.4013 49.4671 66.5447 49.0377 67.9368 48.1789C69.3288 47.3201 70.6463 46.3859 71.8892 45.3764C73.1321 44.367 74.4993 43.4328 75.9908 42.574C77.4822 41.7152 78.7251 41.2858 79.7195 41.2858C80.4155 41.2858 81.1239 41.3912 81.8448 41.6022C82.5657 41.8131 83.4482 42.1371 84.4922 42.574C85.5362 43.0109 86.1577 43.2746 86.3565 43.365C87.5994 43.817 88.9293 44.2841 90.3462 44.7662C91.7631 45.2484 93.3416 45.7757 95.0817 46.3483C96.8217 46.9208 98.1641 47.3728 99.1087 47.7043C102.589 48.759 104.478 49.5575 104.776 50.0999C104.925 50.3109 105 50.6273 105 51.0492Z" fill="black"/>
</svg>
