<svg width="20" height="20" viewBox="0 0 20 20" fill="none" xmlns="http://www.w3.org/2000/svg">
<g clip-path="url(#clip0_123_426)">
<path d="M12.1763 13.2129C11.7165 13.6854 11.1038 13.9454 10.453 13.9454C9.80224 13.9454 9.1896 13.6854 8.72975 13.2129L5.27661 9.67133C4.81601 9.19953 4.56251 8.57133 4.56251 7.90377C4.56251 7.2362 4.81601 6.608 5.27661 6.13636C5.73646 5.6638 6.34911 5.40379 6.99998 5.40379C7.65071 5.40379 8.26335 5.6638 8.7232 6.13636L10.453 7.90956L15.2281 3.01215C13.6681 1.64803 11.6482 0.820557 9.43746 0.820557C4.50151 0.820557 0.5 4.92467 0.5 9.98703C0.5 15.0495 4.50151 19.1536 9.43746 19.1536C14.3733 19.1536 18.3748 15.0495 18.3748 9.98703C18.3748 9.03962 18.2343 8.12624 17.9743 7.26626L12.1763 13.2129Z" fill="#42688D"/>
<path d="M10.4532 12.2788C10.2452 12.2788 10.0373 12.1971 9.87882 12.0346L6.42583 8.49295C6.10806 8.16718 6.10806 7.64045 6.42583 7.31468C6.74346 6.98875 7.25687 6.98875 7.57465 7.31468L10.4532 10.2671L18.6132 1.89802C18.9308 1.57224 19.4442 1.57224 19.762 1.89802C20.0796 2.22394 20.0796 2.75051 19.762 3.07644L11.0276 12.0346C10.8693 12.1971 10.6612 12.2788 10.4532 12.2788Z" fill="#D9E1E8"/>
</g>
<defs>
<clipPath id="clip0_123_426">
<rect width="19.5" height="20" fill="white" transform="translate(0.5)"/>
</clipPath>
</defs>
</svg>
