<svg width="87" height="57" viewBox="0 0 87 57" fill="none" xmlns="http://www.w3.org/2000/svg">
<path d="M18.85 45.4286C16.8563 45.4286 15.1495 44.738 13.7297 43.3566C12.3099 41.9753 11.6 40.3148 11.6 38.3751V7.33934C11.6 5.39961 12.3099 3.73908 13.7297 2.35775C15.1495 0.976429 16.8563 0.285767 18.85 0.285767H68.15C70.1438 0.285767 71.8505 0.976429 73.2703 2.35775C74.6901 3.73908 75.4 5.39961 75.4 7.33934V38.3751C75.4 40.3148 74.6901 41.9753 73.2703 43.3566C71.8505 44.738 70.1438 45.4286 68.15 45.4286H18.85ZM17.4 7.33934V38.3751C17.4 38.7571 17.5435 39.0878 17.8305 39.367C18.1174 39.6462 18.4573 39.7858 18.85 39.7858H68.15C68.5427 39.7858 68.8826 39.6462 69.1695 39.367C69.4565 39.0878 69.6 38.7571 69.6 38.3751V7.33934C69.6 6.95727 69.4565 6.62663 69.1695 6.34743C68.8826 6.06823 68.5427 5.92862 68.15 5.92862H18.85C18.4573 5.92862 18.1174 6.06823 17.8305 6.34743C17.5435 6.62663 17.4 6.95727 17.4 7.33934ZM79.75 48.2501H87V52.4822C87 53.6578 86.2901 54.6571 84.8703 55.48C83.4505 56.3029 81.7438 56.7143 79.75 56.7143H7.25C5.25625 56.7143 3.54948 56.3029 2.12969 55.48C0.709896 54.6571 0 53.6578 0 52.4822V48.2501H7.25H79.75ZM47.125 52.4822C47.6083 52.4822 47.85 52.2471 47.85 51.7768C47.85 51.3066 47.6083 51.0715 47.125 51.0715H39.875C39.3917 51.0715 39.15 51.3066 39.15 51.7768C39.15 52.2471 39.3917 52.4822 39.875 52.4822H47.125Z" fill="black"/>
</svg>
